<svg xmlns="http://www.w3.org/2000/svg" width="1120" height="410" viewBox="0 0 1120 410" role="img" aria-labelledby="chart-title chart-desc">
  <title id="chart-title">GitHub contribution activity</title>
  <desc id="chart-desc">61 contributions across 24 active days in the last 30 days.</desc>
  <defs>
    <linearGradient id="chart-bg" x1="0" y1="0" x2="0" y2="1">
      <stop offset="0" stop-color="#111821" stop-opacity="0.72"/>
      <stop offset="1" stop-color="#0d1117" stop-opacity="1"/>
    </linearGradient>
    <linearGradient id="daily-area" x1="0" y1="0" x2="0" y2="1">
      <stop offset="0" stop-color="#39d353" stop-opacity="0.23"/>
      <stop offset="0.58" stop-color="#39d353" stop-opacity="0.07"/>
      <stop offset="1" stop-color="#39d353" stop-opacity="0"/>
    </linearGradient>
    <filter id="point-glow" x="-300%" y="-300%" width="700%" height="700%">
      <feGaussianBlur stdDeviation="3.5" result="blur"/>
      <feMerge><feMergeNode in="blur"/><feMergeNode in="SourceGraphic"/></feMerge>
    </filter>
  </defs>
  <rect x="0.5" y="0.5" width="1119" height="409" rx="18" fill="url(#chart-bg)" stroke="none"/>
  <g font-family="-apple-system,BlinkMacSystemFont,'Segoe UI',sans-serif">
    <text x="70" y="34" fill="#f0f6fc" font-size="20" font-weight="700" letter-spacing="-0.25">GitHub contribution activity</text>
    <text x="70" y="58" fill="#8b949e" font-size="12">@KavinKumar73-coder · Sep 04, 2026 → Oct 03, 2026</text>
    <text x="70" y="78" fill="#8b949e" font-size="12" opacity="0.94">30 days · 61 contributions · 24 active days · peak 17</text>
    <g transform="translate(896,30)" font-size="12" fill="#8b949e">
      <line x1="0" y1="0" x2="25" y2="0" stroke="#39d353" stroke-width="2.6" stroke-linecap="round"/>
      <text x="33" y="4">Daily</text>
      <line x1="92" y1="0" x2="117" y2="0" stroke="#58a6ff" stroke-width="1.7" stroke-dasharray="5 6" stroke-linecap="round" opacity="0.72"/>
      <text x="125" y="4">7d trend</text>
    </g>
    <line x1="70" y1="116.00" x2="1078" y2="116.00" stroke="#21262d" stroke-width="1" opacity="0.52"/>
    <text x="56" y="120.00" fill="#8b949e" font-size="12" text-anchor="end" opacity="0.82">19</text>
    <line x1="70" y1="193.33" x2="1078" y2="193.33" stroke="#21262d" stroke-width="1" opacity="0.52"/>
    <text x="56" y="197.33" fill="#8b949e" font-size="12" text-anchor="end" opacity="0.82">13</text>
    <line x1="70" y1="270.67" x2="1078" y2="270.67" stroke="#21262d" stroke-width="1" opacity="0.52"/>
    <text x="56" y="274.67" fill="#8b949e" font-size="12" text-anchor="end" opacity="0.82">6</text>
    <line x1="70" y1="348.00" x2="1078" y2="348.00" stroke="#21262d" stroke-width="1" opacity="0.9"/>
    <text x="56" y="352.00" fill="#8b949e" font-size="12" text-anchor="end" opacity="0.82">0</text>
    <path d="M 70.00 324.06 C 76.26 324.06, 92.25 324.06, 104.76 324.06 C 117.27 324.06, 127.00 324.06, 139.52 324.06 C 152.03 324.06, 161.76 324.06, 174.28 324.06 C 186.79 326.21, 196.52 333.87, 209.03 336.03 C 221.55 336.03, 231.28 336.03, 243.79 336.03 C 256.31 333.87, 266.04 326.21, 278.55 324.06 C 291.06 324.06, 300.80 324.06, 313.31 324.06 C 325.82 328.37, 335.56 348.00, 348.07 348.00 C 360.58 348.00, 370.31 328.37, 382.83 324.06 C 395.34 324.06, 405.07 324.06, 417.59 324.06 C 430.10 324.06, 439.83 324.06, 452.34 324.06 C 464.86 328.37, 474.59 348.00, 487.10 348.00 C 499.62 348.00, 509.35 324.06, 521.86 324.06 C 534.38 324.06, 544.11 348.00, 556.62 348.00 C 569.13 348.00, 578.87 328.37, 591.38 324.06 C 603.89 324.06, 613.62 324.06, 626.14 324.06 C 638.65 328.37, 648.38 343.69, 660.90 348.00 C 673.41 348.00, 683.14 348.00, 695.66 348.00 C 708.17 343.69, 717.90 326.21, 730.41 324.06 C 742.93 324.06, 752.66 333.87, 765.17 336.03 C 777.69 336.03, 787.42 336.03, 799.93 336.03 C 812.44 336.03, 822.18 336.03, 834.69 336.03 C 847.20 333.87, 856.94 326.21, 869.45 324.06 C 881.96 324.06, 891.69 324.06, 904.21 324.06 C 916.72 326.21, 926.45 336.03, 938.97 336.03 C 951.48 336.03, 961.21 324.06, 973.72 324.06 C 986.24 326.21, 995.97 348.00, 1008.48 348.00 C 1021.00 315.68, 1030.73 157.42, 1043.24 144.49 C 1055.75 144.49, 1071.74 252.47, 1078.00 276.17 L 1078.00 348.00 L 70.00 348.00 Z" fill="url(#daily-area)"/>
    <path d="M 70.00 330.88 C 78.34 330.88, 88.07 330.88, 104.76 330.88 C 121.44 330.08, 122.83 328.76, 139.52 327.53 C 156.20 326.29, 157.59 326.16, 174.28 325.73 C 190.96 325.73, 192.35 325.73, 209.03 325.73 C 225.72 326.16, 227.11 327.10, 243.79 327.53 C 260.48 327.53, 261.87 327.53, 278.55 327.53 C 295.24 327.53, 296.63 327.53, 313.31 327.53 C 329.99 328.33, 331.38 330.08, 348.07 330.88 C 364.75 330.88, 366.14 330.88, 382.83 330.88 C 399.51 330.88, 400.90 330.88, 417.59 330.88 C 434.27 330.48, 435.66 329.21, 452.34 329.21 C 469.03 329.21, 470.42 330.48, 487.10 330.88 C 503.79 330.88, 505.18 330.88, 521.86 330.88 C 538.55 331.71, 539.94 334.35, 556.62 334.35 C 573.30 334.35, 574.70 331.71, 591.38 330.88 C 608.06 330.88, 609.45 330.88, 626.14 330.88 C 642.82 331.71, 644.21 332.72, 660.90 334.35 C 677.58 335.99, 678.97 337.70, 695.66 337.70 C 712.34 337.70, 713.73 334.76, 730.41 334.35 C 747.10 334.35, 748.49 336.03, 765.17 336.03 C 781.86 336.03, 783.25 334.35, 799.93 334.35 C 816.62 334.35, 818.01 335.63, 834.69 336.03 C 851.37 336.03, 852.76 336.03, 869.45 336.03 C 886.13 335.20, 887.52 333.79, 904.21 332.56 C 920.89 331.32, 922.28 331.28, 938.97 330.88 C 955.65 330.88, 957.04 330.88, 973.72 330.88 C 990.41 331.28, 991.80 332.56, 1008.48 332.56 C 1025.17 326.41, 1026.56 313.88, 1043.24 305.26 C 1059.93 296.64, 1069.66 298.71, 1078.00 296.64" fill="none" stroke="#58a6ff" stroke-width="1.75" stroke-dasharray="5 7" stroke-linejoin="round" stroke-linecap="round" opacity="0.66" vector-effect="non-scaling-stroke"/>
    <path d="M 70.00 324.06 C 76.26 324.06, 92.25 324.06, 104.76 324.06 C 117.27 324.06, 127.00 324.06, 139.52 324.06 C 152.03 324.06, 161.76 324.06, 174.28 324.06 C 186.79 326.21, 196.52 333.87, 209.03 336.03 C 221.55 336.03, 231.28 336.03, 243.79 336.03 C 256.31 333.87, 266.04 326.21, 278.55 324.06 C 291.06 324.06, 300.80 324.06, 313.31 324.06 C 325.82 328.37, 335.56 348.00, 348.07 348.00 C 360.58 348.00, 370.31 328.37, 382.83 324.06 C 395.34 324.06, 405.07 324.06, 417.59 324.06 C 430.10 324.06, 439.83 324.06, 452.34 324.06 C 464.86 328.37, 474.59 348.00, 487.10 348.00 C 499.62 348.00, 509.35 324.06, 521.86 324.06 C 534.38 324.06, 544.11 348.00, 556.62 348.00 C 569.13 348.00, 578.87 328.37, 591.38 324.06 C 603.89 324.06, 613.62 324.06, 626.14 324.06 C 638.65 328.37, 648.38 343.69, 660.90 348.00 C 673.41 348.00, 683.14 348.00, 695.66 348.00 C 708.17 343.69, 717.90 326.21, 730.41 324.06 C 742.93 324.06, 752.66 333.87, 765.17 336.03 C 777.69 336.03, 787.42 336.03, 799.93 336.03 C 812.44 336.03, 822.18 336.03, 834.69 336.03 C 847.20 333.87, 856.94 326.21, 869.45 324.06 C 881.96 324.06, 891.69 324.06, 904.21 324.06 C 916.72 326.21, 926.45 336.03, 938.97 336.03 C 951.48 336.03, 961.21 324.06, 973.72 324.06 C 986.24 326.21, 995.97 348.00, 1008.48 348.00 C 1021.00 315.68, 1030.73 157.42, 1043.24 144.49 C 1055.75 144.49, 1071.74 252.47, 1078.00 276.17" fill="none" stroke="#39d353" stroke-width="2.8" stroke-linejoin="round" stroke-linecap="round" vector-effect="non-scaling-stroke"/>
    <circle cx="1078.00" cy="276.17" r="3.2" fill="#39d353" filter="url(#point-glow)"/>
    <text x="70.00" y="389" fill="#8b949e" font-size="12" text-anchor="start" opacity="0.86">Sep 04</text>
    <text x="278.55" y="389" fill="#8b949e" font-size="12" text-anchor="middle" opacity="0.86">Sep 10</text>
    <text x="487.10" y="389" fill="#8b949e" font-size="12" text-anchor="middle" opacity="0.86">Sep 16</text>
    <text x="660.90" y="389" fill="#8b949e" font-size="12" text-anchor="middle" opacity="0.86">Sep 21</text>
    <text x="869.45" y="389" fill="#8b949e" font-size="12" text-anchor="middle" opacity="0.86">Sep 27</text>
    <text x="1078.00" y="389" fill="#8b949e" font-size="12" text-anchor="end" opacity="0.86">Oct 03</text>
  </g>
</svg>
